<?xml version="1.0" encoding="iso-8859-1"?>
<!-- Generator: Adobe Illustrator 19.0.0, SVG Export Plug-In . SVG Version: 6.00 Build 0)  -->
<svg version="1.1" id="Layer_1" xmlns="http://www.w3.org/2000/svg" xmlns:xlink="http://www.w3.org/1999/xlink" x="0px" y="0px"
	 viewBox="0 0 512 512" style="enable-background:new 0 0 512 512;" xml:space="preserve">
<path style="fill:#A78966;" d="M488.727,341.333h-23.273h-23.273h-15.515h-7.758H186.182h-23.273h-23.273H93.091V23.273
	C93.091,10.42,82.671,0,69.818,0H23.273C10.42,0,0,10.42,0,23.273s10.42,23.273,23.273,23.273h23.273v318.061
	c0,12.853,10.42,23.273,23.273,23.273h17.121h27.539h48.431h48.431h27.539h111.818h27.539h48.431h15.515h32.915h13.63
	c4.425,0,8.546-1.257,12.066-3.401c6.712-4.084,11.207-11.442,11.207-19.872C512,351.753,501.58,341.333,488.727,341.333z"/>
<path style="fill:#FF6243;" d="M442.182,62.061H302.545H162.909c-12.853,0-23.273,10.42-23.273,23.273v93.091v93.091v69.818h23.273
	h23.273h116.364h116.364h7.758h15.515h23.273v-69.818v-93.091V85.333C465.455,72.481,455.035,62.061,442.182,62.061z"/>
<g>
	<path style="fill:#FFFFFF;" d="M124.121,426.667c0,21.388,17.4,38.788,38.788,38.788s38.788-17.4,38.788-38.788
		s-17.4-38.788-38.788-38.788S124.121,405.279,124.121,426.667z"/>
	<path style="fill:#FFFFFF;" d="M387.879,426.667c0,21.388,17.4,38.788,38.788,38.788s38.788-17.4,38.788-38.788
		s-17.4-38.788-38.788-38.788S387.879,405.279,387.879,426.667z"/>
</g>
<g>
	<path style="fill:#57565C;" d="M162.909,387.879c21.388,0,38.788,17.4,38.788,38.788s-17.4,38.788-38.788,38.788
		s-38.788-17.4-38.788-38.788S141.521,387.879,162.909,387.879h-48.431H86.939c-5.97,11.647-9.363,24.824-9.363,38.788
		c0,47.053,38.281,85.333,85.333,85.333s85.333-38.281,85.333-85.333c0-13.964-3.392-27.141-9.363-38.788H211.34H162.909z"/>
	<path style="fill:#57565C;" d="M475.097,387.879h-32.915h-15.515c21.388,0,38.788,17.4,38.788,38.788s-17.4,38.788-38.788,38.788
		s-38.788-17.4-38.788-38.788s17.4-38.788,38.788-38.788h-48.431h-27.539c-5.972,11.647-9.363,24.824-9.363,38.788
		c0,47.053,38.281,85.333,85.333,85.333S512,473.719,512,426.667c0-15.341-4.09-29.735-11.207-42.189
		c-3.52,2.144-7.641,3.401-12.066,3.401H475.097z"/>
</g>
<path style="fill:#806749;" d="M93.091,23.273C93.091,10.42,82.671,0,69.818,0H23.273C10.42,0,0,10.42,0,23.273
	s10.42,23.273,23.273,23.273h23.273h23.273C82.671,46.545,93.091,36.125,93.091,23.273z"/>
<path style="fill:#A4E276;" d="M442.182,62.061H302.545H162.909c-12.853,0-23.273,10.42-23.273,23.273v93.091
	c0-12.853,10.42-23.273,23.273-23.273h23.273h116.364h116.364h23.273c12.853,0,23.273,10.42,23.273,23.273V85.333
	C465.455,72.481,455.035,62.061,442.182,62.061z"/>
<path style="fill:#5286FA;" d="M442.182,155.152h-23.273H302.545H186.182h-23.273c-12.853,0-23.273,10.42-23.273,23.273v93.091
	c0-12.853,10.42-23.273,23.273-23.273h23.273h116.364h116.364h23.273c12.853,0,23.273,10.42,23.273,23.273v-93.091
	C465.455,165.571,455.035,155.152,442.182,155.152z"/>
<path style="fill:#64C37D;" d="M139.636,85.333v93.091c0-12.853,10.42-23.273,23.273-23.273h23.273h116.364V62.061H162.909
	C150.056,62.061,139.636,72.481,139.636,85.333z"/>
<path style="fill:#FF0C38;" d="M186.182,248.242h-23.273c-12.853,0-23.273,10.42-23.273,23.273v69.818h23.273h23.273h116.364
	v-93.091H186.182z"/>
<path style="fill:#3D6DEB;" d="M162.909,155.152c-12.853,0-23.273,10.42-23.273,23.273v93.091c0-12.853,10.42-23.273,23.273-23.273
	h23.273h116.364v-93.091H186.182H162.909z"/>
<g>
</g>
<g>
</g>
<g>
</g>
<g>
</g>
<g>
</g>
<g>
</g>
<g>
</g>
<g>
</g>
<g>
</g>
<g>
</g>
<g>
</g>
<g>
</g>
<g>
</g>
<g>
</g>
<g>
</g>
</svg>
